<svg xmlns="http://www.w3.org/2000/svg" width="1200" height="828.75" viewBox="0 0 960.000000 663.000000"><g transform="matrix(.1 0 0-.1 0 663)"><path d="m8262 5285c-40-34-67-85-88-168-9-34-33-93-55-131l-38-70-49 3c-27 1-77-5-111-14l-61-16-45 31c-107 74-266 129-370 130-56 0-142-24-222-62-63-29-79-32-199-38-129-5-132-6-190-42-32-20-88-46-124-58-76-25-145-63-231-127-49-36-91-55-198-89-75-24-170-57-211-75-53-22-100-34-157-39-73-6-89-11-140-46-49-33-69-39-129-44-58-5-81-13-120-39-48-32-50-33-124-25-41 4-107 8-146 8-69 1-71 0-118-41-43-38-59-44-174-72-70-17-176-38-237-46-186-28-206-34-245-74-21-23-52-42-80-50-53-16-243-109-320-159-30-19-82-57-114-84-90-75-105-80-252-89-189-11-204-16-299-113-59-59-90-101-118-157-46-94-69-108-287-174-243-73-319-107-495-225-247-165-614-369-729-404-78-25-157-18-226 20-48 26-55 35-103 134-59 120-109 180-209 246-68 45-159 84-198 84-14 0-20 7-20 23 0 53-72 118-158 143-98 29-150 4-298-144l-111-110-13-93c-13-91-13-100 18-281 17-103 38-200 46-216 25-48 76-104 207-225 147-134 164-165 186-322 19-144 32-202 59-270 50-123 118-185 205-185 41 0 50-5 100-53 67-66 143-95 270-104 160-11 228 13 394 137 144 109 428 293 510 331 92 43 179 60 585 114 551 74 751 124 909 230 40 26 130 111 229 214 195 203 279 263 384 275 35 4 257 24 493 46 237 21 444 43 460 48 17 5 90 6 170 1 238-13 352-11 392 8 49 23 102 79 126 133 35 80 35 80 172 80 254 0 531 35 635 81 25 11 78 45 118 76l74 56 46-11c26-7 79-15 118-18 87-8 153 16 178 65 9 17 26 33 39 35 12 3 129 14 259 26 350 30 435 57 576 178 101 88 145 114 243 146 42 13 95 34 118 45 84 43 147 132 170 239 13 64 15 235 2 280-9 30-8 32 17 38 75 15 125 64 157 154 23 65 45 221 45 322 0 172-37 267-144 373-104 103-245 167-515 235-184 46-201 47-239 15m333-89c208-68 300-111 364-171 99-93 148-252 138-454-7-151-25-209-86-272-67-70-84-67-174 25-67 68-78 75-157 101-148 48-179 67-252 154-140 165-243 225-446 261-40 7-72 17-72 21 0 14 68 22 128 15 171-18 185-19 178-8-3 6-20 13-37 17-17 4-33 14-36 22-3 8 11 47 31 87 20 40 36 84 36 97 0 47 20 93 57 132 37 38 39 39 98 34 34-3 135-29 230-61m-959-224c29-10 77-34 109-53l56-34-55-7c-57-7-142-45-165-72-17-21-12-20 49 4 66 26 157 26 314 0 190-32 256-68 420-229 129-126 133-129 266-193 116-56 143-73 187-122 57-62 69-92 79-201 10-107-10-202-56-274-55-84-101-115-218-142l-97-24-75-76c-98-101-195-149-394-194-91-20-478-75-488-69-4 3-8 15-8 27 0 16-8 8-29-29-51-89-94-104-240-84l-96 13-60-31c-33-16-87-46-119-66-107-64-139-72-429-96-148-12-271-20-273-17-8 7 64 47 151 84l80 34-70-5c-100-8-149-28-239-99-66-52-82-70-97-113-33-88-89-113-264-120-66-2-148-6-182-8-35-2-63-1-63 3 0 4 19 16 43 28 124 60 285 210 418 389 53 72 116 147 140 167 23 21 180 106 353 193 356 179 351 177 571 162 171-12 274-12 305 0 23 9 22 10-20 16-77 12-83 15-68 34 16 19 169 121 255 168 74 42 163 61 328 70l120 6 40 43c22 24 60 76 85 116 59 94 119 155 170 170 57 17 50 29-17 29-65-1-91-12-123-52-19-24-28-28-73-28-29 1-70 7-92 15-68 25-61 6 24-58l59-44-17-26c-30-46-92-108-119-118-14-5-87-14-161-20-194-14-237-29-419-149l-152-101-176-2c-171-2-175-1-169 18 14 52 27 155 21 171-10 26-22 6-34-58-6-32-21-79-32-106-18-42-27-51-61-61-22-7-74-30-115-52-50-26-76-35-78-26-2 6-8 39-15 72-12 67-58 166-122 265l-41 64 32 27c33 28 129 64 200 75 22 4 40 11 40 16 0 14-160-3-220-24-30-10-62-21-70-23-9-3-39 26-80 77-77 96-150 159-260 225-72 43-78 49-63 61 24 17 148 55 271 83 101 23 104 23 150 6 79-30 83-31 76-13-3 8-22 25-41 37l-35 22 44 38c103 89 182 118 326 119 38 0 52 4 50 12-3 7-15 15-28 18l-24 6 24 22c61 56 202 56 394-3 65-20 123-34 130-32 14 5-75 51-132 68-49 14-50 26 0 51 88 46 302 62 394 30m-1574-558c99-59 251-205 319-309 89-135 176-332 185-423l6-58-61-37c-35-20-63-37-64-37-1 0-3 33-4 73-1 80-38 218-80 307-46 96-269 300-430 394-33 19-6-9 70-72 110-93 260-246 301-307 58-88 71-137 71-265 0-141-5-160-47-184-18-11-52-34-75-53l-43-34v40c0 44-8 71-21 71-5 0-9-10-9-23 0-73-27-123-154-287-70-91-151-189-180-218-47-49-176-152-189-152-3 0 5 24 19 54 53 117 53 244-2 417-30 94-112 232-181 303-44 45-67 59-140 86-91 34-209 46-260 27-19-7-23-5-23 11 0 28 53 70 98 78 112 19 153 30 150 39-4 12-95 13-160 2-38-6-48-5-48 5 0 21 68 159 97 196 42 55 20 46-48-20-68-66-97-114-106-176-3-20-12-44-20-53-8-9-18-30-22-45-8-29-8-29-20 15-17 59-54 116-116 177-98 95-167 133-310 169-29 8-28 9 25 21 30 7 117 23 193 34 160 25 307 62 351 90 17 10 42 30 55 44 30 32 49 32 158 0 94-27 205-35 237-17 17 9 14 12-23 18-37 6-40 9-29 23 20 24 88 50 153 57 33 4 65 11 71 16 6 5 38 21 70 34 86 37 133 30 236-31m-1377-379c101-48 188-132 233-225 17-36 34-77 37-91 6-23 2-27-37-38-67-20-276-109-344-146-34-19-101-63-150-98-120-87-184-117-348-166-76-23-146-47-156-54-20-14-86-92-100-117-5-10-30-23-56-29-215-54-340-105-804-324-261-124-518-241-571-260-305-113-457-110-645 15-73 49-164 136-129 124 55-20 102-17 178 8 109 37 209 89 567 296 393 229 423 243 650 325 201 73 266 103 291 131 8 11 37 55 64 99 57 96 106 149 160 177 61 32 91 38 217 48 132 9 108-2 302 142 137 103 199 137 351 190 137 48 176 47 290-7m665-397c164-76 285-293 306-552 8-87-19-195-61-245-49-57-142-75-590-111-364-29-508-51-582-88-83-42-172-111-240-184-32-35-99-103-149-153-180-179-324-230-859-305-347-49-677-99-717-110-40-12-125-66-383-249-268-189-381-241-525-241-144 0-238 47-285 144-23 46-29 77-37 178-15 199-15 200-70 290-27 45-75 133-105 193-67 133-110 202-163 259-78 84-87 151-40 270 26 65 30 85 28 163-3 141 39 202 146 211 140 11 254-80 396-318 200-336 378-461 635-448 166 9 469 126 1059 407 316 152 446 202 625 242l100 23 51 78c66 101 92 114 304 158 88 18 104 25 160 68 160 127 269 189 491 279l180 73 135-3c120-3 141-6 190-29m-4436-368c29-10 42-31 51-80 6-33 4-36-39-59-78-40-116-115-116-227 0-36-10-94-26-145-19-65-24-98-21-146 6-75 22-109 121-245 42-57 94-144 117-194 22-49 64-129 92-178l51-88 7-132c3-72 10-139 14-148 11-27-44-24-85 5-51 34-66 70-90 209-43 256-80 329-255 502-168 165-181 190-195 357-6 67-17 142-27 168-15 43-15 52 0 119 15 67 22 78 98 164 46 53 96 100 117 110 41 19 145 24 186 8"/><path d="m8365 5164c44-102 48-126 42-278-5-112-3-156 7-180 17-42 71-103 107-122 31-15 96-19 118-5 15 10 8 15-34 25-52 12-105 55-126 99-15 33-19 66-19 153 0 161-40 306-90 322-10 4-11 0-5-14"/><path d="m7123 4820c-57-12-93-37-93-66 0-32 5-30 53 12 40 36 41 37 108 31 69-6 87 3 50 23-22 11-58 11-118 0"/><path d="m7288 4780c-21-13-41-74-33-100 4-11 29-46 56-77 53-60 57-74 34-93-19-16-19-30-1-30 20 0 46 39 46 68 0 13-19 51-42 85-56 80-58 87-42 119 21 41 16 48-18 28"/><path d="m6825 4731c-43-20-67-43-133-132-50-67-102-104-156-114-54-9-130-49-155-81-12-15-20-29-18-31 2-2 24 8 49 22 25 14 80 32 123 40 42 8 84 19 94 25 15 7 20 5 24-10 9-33 27-22 27 16 0 65 117 208 202 249 26 12 45 25 41 29-12 12-58 6-98-13"/><path d="m6945 4686c-12-60 13-92 135-175l55-37v-67c0-73 15-89 34-36 27 79-1 143-84 190-42 24-59 41-84 89-18 33-36 62-41 65-5 3-12-10-15-29"/><path d="m7570 4702c0-5 10-24 23-43 16-24 49-47 114-79 107-53 116-60 195-162 88-114 105-98 30 27-59 98-106 143-171 161-69 20-105 38-153 76-21 16-38 25-38 20"/><path d="m7409 4430c-8-103 69-218 154-234 21-4 37-11 37-15 0-5 14-23 32-40 36-35 80-47 136-36 41 8 42 7-51 40-75 26-85 42-117 173-15 60-34 55-26-8 6-48 6-50-18-50-35 0-90 56-111 115-20 56-34 77-36 55"/><path d="m6715 4391c-3-5 14-20 36-33 29-16 50-38 68-72 32-60 57-74 48-27-13 64-39 103-81 122-46 21-62 23-71 10"/><path d="m7173 4318c-4-7-17-35-29-63l-21-50-76 2c-46 1-90 8-108 17-28 14-30 14-27-1 8-44 146-83 214-61 61 21 100 95 78 152-7 19-20 21-31 4"/><path d="m7320 4242c0-62 37-103 113-126 10-3 17-15 17-29 0-14 9-36 21-51 16-21 29-26 62-25 23 0 51 4 62 9 17 7 16 9-10 9-16 1-44 10-62 21-33 20-40 38-46 130l-3 45-14-32c-8-18-19-33-24-33-17 0-78 52-97 84l-19 31v-33"/><path d="m8205 3849c-11-17 3-24 56-26 67-2 104-16 184-68 37-25 74-45 81-45 20 0 17 35-3 56-55 55-297 118-318 83"/><path d="m8270 3698c-66-44-112-98-130-154-14-41-51-63-120-71-78-9-48-23 50-23 112 0 138 17 164 112 20 70 69 127 131 149 44 16 45 29 1 29-23 0-54-13-96-42"/><path d="m7725 3641c-41-19-192-166-214-210-10-17-10-26-1-35 8-8 14-6 22 9 7 11 36 45 65 76 74 78 138 107 284 127 66 9 120 22 120 27 0 28-218 33-276 6"/><path d="m7057 3521c-21-11-62-38-92-61-107-82-101-99 12-35 98 55 134 57 236 16 88-35 128-44 146-32 18 12-108 86-190 112-74 23-67 23-112 0"/><path d="m5394 3869c-8-13-9-12 51-27 28-7 91-33 141-58 106-52 172-114 223-211 19-35 37-60 42-57 16 10 9 79-12 119-34 65-99 125-174 161-107 52-258 93-271 73"/><path d="m4525 3705c-5-2-48-15-95-29-96-28-133-57-177-138-24-45-35-53-115-91-48-22-88-44-88-47 0-8 95 5 152 21 45 12 60 26 115 111 48 75 84 101 198 143 39 15 72 29 74 31 5 5-50 4-64-1"/><path d="m3962 3638c1-50-19-94-69-149l-35-39h30c39 0 83 37 106 89 18 38 18 41 1 85-24 61-33 65-33 14"/><path d="m3450 3361c0-35 64-64 151-69 73-4 79-3 103 21 14 14 26 34 26 44-1 14-5 12-21-9-27-36-56-36-159 2-96 35-100 36-100 11"/><path d="m5204 3361c-96-26-276-95-338-129-58-33-76-56-59-73 9-9 30 0 90 39 103 68 130 78 270 103 118 21 168 40 160 62-6 19-46 18-123-2"/><path d="m4533 3188c-11-13-34-53-51-89-45-95-57-103-147-101-74 2-86-3-63-26 17-17 122-15 166 3 72 31 132 113 135 186 2 49-11 58-40 27"/><path d="m3972 2818c7-20 67-57 111-69 49-13 144 7 161 33 17 28-1 33-74 20-63-11-74-10-120 8-58 23-83 25-78 8"/><path d="m4586 2805c-64-27-99-52-90-66 3-5 18-2 34 6 44 23 148 45 213 45 50 0 58 2 55 18-3 14-16 17-78 19-61 2-86-2-134-22"/><path d="m3550 2693c-97-11-242-48-364-93-200-73-284-109-290-127-5-11-2-14 11-8 38 14 384 115 493 144 63 16 147 33 187 36 74 7 111 23 99 43-7 12-61 13-136 5"/><path d="m1330 2555c0-3 20-46 45-95 24-49 61-127 80-174 35-84 35-88 33-208-3-116-1-126 24-178 31-62 108-144 132-138 12 2 10 11-16 48-17 25-44 73-60 106-29 61-29 62-17 151 10 78 9 98-5 147-31 106-171 346-201 346-8 0-15-2-15-5"/><path d="m1787 2027c-15-38 80-150 141-167 53-14 137-12 177 4 20 9 45 31 60 56 19 31 41 48 81 66 58 25 70 44 29 44-32 0-94-31-137-69-50-43-71-51-133-51-75 0-112 17-167 78-30 34-48 47-51 39"/></g></svg>