<svg viewBox="0 0 512 512" xmlns="http://www.w3.org/2000/svg">
<circle cx="256" cy="88" r="30" stroke="#fff" stroke-width="4.5" stroke-linecap="round" stroke-linejoin="round" fill="none"/>
<path d="M 222 148 C 217 178, 218.0 208.0, 224.0 228.0 C 216.0 258.0, 222 278, 226 308 L 286 308 C 290 278, 296.0 258.0, 288.0 228.0 C 294.0 208.0, 295 178, 290 148 Z" stroke="#fff" stroke-width="4.5" stroke-linecap="round" stroke-linejoin="round" fill="none"/>
<path d="M 222 154 L 194 120 L 188 84" stroke="#fff" stroke-width="4.5" stroke-linecap="round" stroke-linejoin="round" fill="none"/>
<path d="M 290 154 L 318 120 L 324 84" stroke="#fff" stroke-width="4.5" stroke-linecap="round" stroke-linejoin="round" fill="none"/>
<line x1="180" y1="78" x2="332" y2="78" stroke="#fff" stroke-width="6" stroke-linecap="round"/><rect x="173.0" y="61.0" width="14" height="34" rx="4" fill="#fff" stroke="none" transform="rotate(0.0 180 78)"/><rect x="325.0" y="61.0" width="14" height="34" rx="4" fill="#fff" stroke="none" transform="rotate(0.0 332 78)"/>
<path d="M 230 308 C 222 368, 220 428, 222 492" stroke="#fff" stroke-width="4.5" stroke-linecap="round" stroke-linejoin="round" fill="none"/><path d="M 282 308 C 290 368, 292 428, 290 492" stroke="#fff" stroke-width="4.5" stroke-linecap="round" stroke-linejoin="round" fill="none"/><rect x="208" y="492" width="26" height="8" rx="3" fill="#fff" stroke="none"/><rect x="278" y="492" width="26" height="8" rx="3" fill="#fff" stroke="none"/>
<line x1="224" y1="230" x2="288" y2="230" stroke="#fff" stroke-width="2.5" stroke-linecap="round" stroke-linejoin="round" fill="none"/>
</svg>