<svg viewBox="0 0 512 512" xmlns="http://www.w3.org/2000/svg">
<circle cx="256" cy="90" r="30" stroke="#fff" stroke-width="4.5" stroke-linecap="round" stroke-linejoin="round" fill="none"/>
<path d="M 222 150 C 217 180, 218.0 210.0, 224.0 230.0 C 216.0 260.0, 222 280, 226 310 L 286 310 C 290 280, 296.0 260.0, 288.0 230.0 C 294.0 210.0, 295 180, 290 150 Z" stroke="#fff" stroke-width="4.5" stroke-linecap="round" stroke-linejoin="round" fill="none"/>
<path d="M 222 156 L 190 122 L 176 84" stroke="#fff" stroke-width="4.5" stroke-linecap="round" stroke-linejoin="round" fill="none"/>
<path d="M 290 156 L 322 122 L 336 84" stroke="#fff" stroke-width="4.5" stroke-linecap="round" stroke-linejoin="round" fill="none"/>
<g transform="rotate(60 176 80)"><line x1="154.0" y1="80" x2="198.0" y2="80" stroke="#fff" stroke-width="5"/><rect x="146.0" y="68" width="10" height="24" rx="3" fill="#fff" stroke="none"/><rect x="196.0" y="68" width="10" height="24" rx="3" fill="#fff" stroke="none"/></g>
<g transform="rotate(-60 336 80)"><line x1="314.0" y1="80" x2="358.0" y2="80" stroke="#fff" stroke-width="5"/><rect x="306.0" y="68" width="10" height="24" rx="3" fill="#fff" stroke="none"/><rect x="356.0" y="68" width="10" height="24" rx="3" fill="#fff" stroke="none"/></g>
<path d="M 230 310 C 222 370, 220 430, 222 492" stroke="#fff" stroke-width="4.5" stroke-linecap="round" stroke-linejoin="round" fill="none"/><path d="M 282 310 C 290 370, 292 430, 290 492" stroke="#fff" stroke-width="4.5" stroke-linecap="round" stroke-linejoin="round" fill="none"/><rect x="208" y="492" width="26" height="8" rx="3" fill="#fff" stroke="none"/><rect x="278" y="492" width="26" height="8" rx="3" fill="#fff" stroke="none"/>
</svg>